HIERARCHY
ROOT root
{
	OFFSET	0	13.1	24.9
	CHANNELS 6  Xposition Yposition Zposition Xrotation Yrotation Zrotation
	JOINT spine_1
	{
		OFFSET	0	9.99999	0
		CHANNELS 3  Xrotation Yrotation Zrotation
		JOINT spine_2
		{
			OFFSET	0	112	-10
			CHANNELS 3  Xrotation Yrotation Zrotation
			JOINT spine_3
			{
				OFFSET	0	206.5	19.3
				CHANNELS 3  Xrotation Yrotation Zrotation
				JOINT spine_4
				{
					OFFSET	0	110.4	14.6
					CHANNELS 3  Xrotation Yrotation Zrotation
					JOINT neck_1
					{
						OFFSET	0	71.8	-50.3
						CHANNELS 3  Xrotation Yrotation Zrotation
						JOINT neck_2
						{
							OFFSET	0	86.2	-25.8
							CHANNELS 3  Xrotation Yrotation Zrotation
							JOINT head_ee
							{
								OFFSET	0	179.8	-8.7
								CHANNELS 3  Xrotation Yrotation Zrotation
								End Site
								{
									OFFSET	1	0	0
								}
							}
						}
					}
					JOINT left_clavicle
					{
						OFFSET	-43.2	22.4	-70.8
						CHANNELS 3  Xrotation Yrotation Zrotation
						JOINT left_shoulder
						{
							OFFSET	-93.9	-5.79999	48.7
							CHANNELS 3  Xrotation Yrotation Zrotation
							JOINT left_elbow
							{
								OFFSET	-291.4	-30.8	15.2
								CHANNELS 3  Xrotation Yrotation Zrotation
								JOINT left_lowarm_twist
								{
									OFFSET	-110.7	-3.89999	13.6
									CHANNELS 3  Xrotation Yrotation Zrotation
									JOINT left_hand
									{
										OFFSET	-110.7	-3.89999	13.6
										CHANNELS 3  Xrotation Yrotation Zrotation
										JOINT left_ee
										{
											OFFSET	-80.8	-5.10001	12.1
											CHANNELS 3  Xrotation Yrotation Zrotation
											End Site
											{
												OFFSET	1	0	0
											}
										}
									}
								}
							}
						}
					}
					JOINT right_clavicle
					{
						OFFSET	43.2	22.4	-70.8
						CHANNELS 3  Xrotation Yrotation Zrotation
						JOINT right_shoulder
						{
							OFFSET	93.9	-5.79999	48.7
							CHANNELS 3  Xrotation Yrotation Zrotation
							JOINT right_elbow
							{
								OFFSET	291.4	-30.8	15.2
								CHANNELS 3  Xrotation Yrotation Zrotation
								JOINT right_lowarm_twist
								{
									OFFSET	110.7	-3.89999	13.6
									CHANNELS 3  Xrotation Yrotation Zrotation
									JOINT right_hand
									{
										OFFSET	110.7	-3.89999	13.6
										CHANNELS 3  Xrotation Yrotation Zrotation
										JOINT right_ee
										{
											OFFSET	80.8	-5.10001	12.1
											CHANNELS 3  Xrotation Yrotation Zrotation
											End Site
											{
												OFFSET	1	0	0
											}
										}
									}
								}
							}
						}
					}
				}
			}
		}
	}
	JOINT left_hip
	{
		OFFSET	-82.8	-127.5	0.300001
		CHANNELS 3  Xrotation Yrotation Zrotation
		JOINT left_knee
		{
			OFFSET	-28.2	-396.7	2.2
			CHANNELS 3  Xrotation Yrotation Zrotation
			JOINT left_ankle
			{
				OFFSET	-11.7	-411.3	35.4
				CHANNELS 3  Xrotation Yrotation Zrotation
				JOINT left_toes
				{
					OFFSET	0	-60	-88.6
					CHANNELS 3  Xrotation Yrotation Zrotation
					JOINT left_foot_ee
					{
						OFFSET	-22.5	-16.5	-42.2
						CHANNELS 3  Xrotation Yrotation Zrotation
						End Site
						{
							OFFSET	1	0	0
						}
					}
				}
			}
		}
	}
	JOINT right_hip
	{
		OFFSET	82.8	-127.5	0.300001
		CHANNELS 3  Xrotation Yrotation Zrotation
		JOINT right_knee
		{
			OFFSET	28.2	-396.7	2.2
			CHANNELS 3  Xrotation Yrotation Zrotation
			JOINT right_ankle
			{
				OFFSET	11.7	-411.3	35.4
				CHANNELS 3  Xrotation Yrotation Zrotation
				JOINT right_toes
				{
					OFFSET	0	-60	-88.6
					CHANNELS 3  Xrotation Yrotation Zrotation
					JOINT right_foot_ee
					{
						OFFSET	22.5	-16.5	-42.2
						CHANNELS 3  Xrotation Yrotation Zrotation
						End Site
						{
							OFFSET	1	0	0
						}
					}
				}
			}
		}
	}
}
MOTION
Frames: 6
Frame Time: 0.02
3177.02 653.055 -1669.29 -13.363878137 32.1481672339 2.21750602606 4.38039 0.45141 2.00056 4.38256 0.323222 2.02521 4.39249 0.0476084 2.05028 4.38681 0.370748 2.01706 -14.8235 10.7606 -0.99668 -15.2196 21.163 2.69711 -0.0 0.0 -0.0 0.581086 5.46857 1.70898 -38.5376 -28.8881 76.0124 0.674012 -18.4635 0.109551 4.36306 0.133163 -0.541259 -0.845851 13.4158 0.206354 -0.0 0.0 -0.0 10.5233 9.50399 -20.986 -11.7431 29.8214 -59.1322 1.21157 30.97 -0.335667 11.043 -0.256283 1.38519 -0.833834 -3.87134 3.87981 0.0 0.0 0.0 28.3594 0.00655613 -2.602 -0.014167 0.000582864 0.00209593 -2.56997 15.6143 0.381194 -0.921689 0.0 0.0 -0.0 0.0 -0.0 3.12077 -31.8356 10.5698 1.33868 0.057436 0.19739 20.2608 3.20007 2.80805 3.24722 -0.0 -0.0 0.0 0.0 0.0 
3157.42474837 647.436 -1678.8661281 -13.5876182409 31.4984742981 2.61204489375 4.29782 0.412644 2.10452 4.30024 0.277923 2.1265 4.30894 -0.0140781 2.14453 4.30267 0.32471 2.11987 -15.7397 11.496 0.615572 -16.2078 21.6686 4.65949 -0.0 0.0 -0.0 0.681479 5.52275 1.89752 -38.6399 -28.8372 75.1202 0.692111 -18.9244 0.115352 4.76949 0.14346 -0.592155 -0.703585 10.6696 -0.0783142 -0.0 0.0 -0.0 10.9364 9.59316 -21.8975 -12.2293 28.5911 -58.5228 1.20615 30.8567 -0.332882 11.0053 -0.255865 1.38039 -0.582458 -3.04553 2.57594 0.0 0.0 0.0 28.7585 -0.784938 -2.83383 -1.60763 0.0628479 0.238702 -1.64546 15.011 0.24329 -3.07535 0.0 0.0 -0.0 0.0 -0.0 2.98565 -31.0672 11.4936 1.59222 0.0688336 0.234623 20.4132 3.67888 2.83143 3.56547 -0.0 -0.0 0.0 0.0 0.0 
3157.33045422 647.436 -1678.67071975 -13.6708157799 32.0524148547 2.7700355334 4.29782 0.412644 2.10452 4.30024 0.277923 2.1265 4.30894 -0.0140781 2.14453 4.30267 0.32471 2.11987 -15.7397 11.496 0.615572 -16.2078 21.6686 4.65949 -0.0 0.0 -0.0 0.681479 5.52275 1.89752 -38.6399 -28.8372 75.1202 0.692111 -18.9244 0.115352 4.76949 0.14346 -0.592155 -0.703585 10.6696 -0.0783142 -0.0 0.0 -0.0 10.9364 9.59316 -21.8975 -12.2293 28.5911 -58.5228 1.20615 30.8567 -0.332882 11.0053 -0.255865 1.38039 -0.582458 -3.04553 2.57594 0.0 0.0 0.0 28.7585 -0.784938 -2.83383 -1.60763 0.0628479 0.238702 -1.64546 15.011 0.24329 -3.07535 0.0 0.0 -0.0 0.0 -0.0 2.98565 -31.0672 11.4936 1.59222 0.0688336 0.234623 20.4132 3.67888 2.83143 3.56547 -0.0 -0.0 0.0 0.0 0.0 
3157.24243406 647.436 -1678.48369358 -13.7522370155 32.5799606455 2.92233947642 4.29782 0.412644 2.10452 4.30024 0.277923 2.1265 4.30894 -0.0140781 2.14453 4.30267 0.32471 2.11987 -15.7397 11.496 0.615572 -16.2078 21.6686 4.65949 -0.0 0.0 -0.0 0.681479 5.52275 1.89752 -38.6399 -28.8372 75.1202 0.692111 -18.9244 0.115352 4.76949 0.14346 -0.592155 -0.703585 10.6696 -0.0783142 -0.0 0.0 -0.0 10.9364 9.59316 -21.8975 -12.2293 28.5911 -58.5228 1.20615 30.8567 -0.332882 11.0053 -0.255865 1.38039 -0.582458 -3.04553 2.57594 0.0 0.0 0.0 28.7585 -0.784938 -2.83383 -1.60763 0.0628479 0.238702 -1.64546 15.011 0.24329 -3.07535 0.0 0.0 -0.0 0.0 -0.0 2.98565 -31.0672 11.4936 1.59222 0.0688336 0.234623 20.4132 3.67888 2.83143 3.56547 -0.0 -0.0 0.0 0.0 0.0 
3135.77860766 646.951 -1688.69231396 -13.3465326958 32.8336923316 3.07908166905 4.28404 0.478647 1.9588 4.2861 0.353059 1.98528 4.29697 0.0792095 2.01486 4.29153 0.396362 1.97709 -14.6682 12.0604 0.325304 -15.1278 22.8569 4.37145 -0.0 0.0 -0.0 0.828529 5.58415 2.17145 -38.6363 -28.898 74.6284 0.654266 -17.9578 0.10338 4.78731 0.143903 -0.594388 -0.624193 8.61501 -0.451084 -0.0 0.0 -0.0 11.2853 9.60994 -22.6725 -14.67 27.7946 -57.24 1.13812 29.4129 -0.298726 10.7894 -0.253411 1.35293 -0.116648 -1.97531 -0.0557571 0.0 0.0 0.0 28.5677 -0.735107 -2.75102 -6.15802 0.204119 0.922578 3.45535 17.8413 -0.508295 -3.70011 0.0 0.0 -0.0 0.0 -0.0 2.91554 -30.741 12.4446 0.998668 0.0424102 0.14738 20.4871 2.8463 2.83314 3.7139 -0.0 -0.0 0.0 0.0 0.0 
3092.57270974 647.47 -1711.18457033 -11.7463212444 30.8437175516 2.02150419806 4.07311 0.350115 1.94312 4.07518 0.225784 1.96145 4.08167 -0.0511265 1.97374 4.07633 0.261169 1.95705 -13.6585 13.9164 1.09746 -14.1751 25.8642 5.5202 -0.0 0.0 -0.0 1.25589 6.20561 3.00623 -36.5954 -28.6721 73.3154 0.600491 -16.5661 0.0874214 4.98518 0.148777 -0.619195 -0.636022 5.42327 -1.90216 -0.0 0.0 -0.0 11.1724 9.81801 -22.4208 -16.9785 26.8236 -57.663 1.10239 28.6377 -0.28139 10.2856 -0.247281 1.28887 0.865237 2.59591 -4.7192 0.0 0.0 0.0 27.1453 -0.488627 -2.71575 -13.2253 0.314826 2.00069 10.7796 21.0235 -1.56936 -2.8834 0.0 0.0 -0.0 0.0 -0.0 5.11966 -28.975 15.8219 -1.91715 -0.0741765 -0.284853 26.0926 -2.49966 3.46489 5.32598 -0.0 -0.0 0.0 0.0 0.0 
